<svg version="1.1" xmlns="http://www.w3.org/2000/svg" viewBox="0 0 2048 1116" preserveAspectRatio="xMidYMid meet">
<defs>
	<linearGradient id="Gradient1" gradientUnits="userSpaceOnUse" x1="534.514" y1="743.5" x2="510.772" y2="592.685">
		<stop class="stop0" offset="0" stop-opacity="1" stop-color="rgb(17,82,96)"/>
		<stop class="stop1" offset="1" stop-opacity="1" stop-color="rgb(53,144,153)"/>
	</linearGradient>
</defs>
<path transform="translate(0,0)" fill="url(#Gradient1)" d="M 357.393 764.644 C 360.747 752.5 372.268 732.68 378.595 721.095 C 396.905 687.567 409.189 649.559 440.325 625.503 C 468.495 603.739 503.343 595.246 538.565 598.006 C 546.791 598.651 556.244 595.464 564.795 598.052 C 577.127 601.641 576.473 582.701 580.942 581.139 C 594.302 576.469 620.617 577.915 634.605 579.162 C 641.151 579.746 645.778 590.884 649.136 595.977 C 653.909 596.439 659.389 596.536 664.233 596.736 C 668.462 607.225 675.846 617.597 679.737 627.455 C 686.146 643.69 697.183 661.46 703.057 677.255 L 701.92 678.447 C 694.766 680.425 654.096 679.739 644.027 679.732 L 522.476 679.812 C 519.816 691.372 515.026 696.958 510.511 707.115 C 502.479 725.183 495.911 745.931 478.31 757.187 C 463.081 766.926 438.455 764.57 419.956 764.461 C 401.785 764.678 374.419 763.344 357.393 764.644 z"/>
<path transform="translate(0,0)" fill="rgb(18,73,88)" d="M 419.956 764.461 C 419.971 764.191 419.984 763.921 420.003 763.651 C 420.5 756.57 441.639 718.294 446.983 710.504 C 450.205 705.771 454.019 701.47 458.333 697.705 C 479.321 679.374 496.423 678.104 522.476 679.812 C 519.816 691.372 515.026 696.958 510.511 707.115 C 502.479 725.183 495.911 745.931 478.31 757.187 C 463.081 766.926 438.455 764.57 419.956 764.461 z"/>
<path transform="translate(0,0)" fill="rgb(28,107,127)" d="M 655.063 353.544 C 658.606 353.175 668.595 351.515 671.083 351.834 C 668.028 358.243 660.837 365.426 656.111 371.306 C 648.699 380.628 642.629 390.942 638.079 401.948 C 631.63 419.499 616.665 461.425 619.018 479.853 C 614.828 489.099 610.107 498.12 605.852 507.476 C 602.421 515.019 598.551 526.888 594.895 533.72 C 584.757 552.661 575.481 569.576 567.071 589.525 C 557.025 589.479 547.329 589.885 537.316 590.043 C 528.455 590.183 518.726 588.998 509.974 589.961 C 503.181 591.686 494.414 592.149 486.693 593.765 C 462.152 598.902 447.874 610.867 428.584 625.057 C 432.945 613.909 439.769 602.062 444.841 591.167 C 459.227 560.258 476.22 529.983 491.592 499.6 L 538.709 406.373 C 544.176 395.683 548.876 384.817 554.614 374.163 C 568.74 347.936 598.398 352.778 623.399 352.642 C 634.338 352.582 644.004 351.743 655.063 353.544 z"/>
<path transform="translate(0,0)" fill="rgb(18,73,88)" d="M 655.063 353.544 C 658.606 353.175 668.595 351.515 671.083 351.834 C 668.028 358.243 660.837 365.426 656.111 371.306 C 648.699 380.628 642.629 390.942 638.079 401.948 C 631.63 419.499 616.665 461.425 619.018 479.853 C 614.828 489.099 610.107 498.12 605.852 507.476 C 602.421 515.019 598.551 526.888 594.895 533.72 C 584.757 552.661 575.481 569.576 567.071 589.525 C 557.025 589.479 547.329 589.885 537.316 590.043 C 528.455 590.183 518.726 588.998 509.974 589.961 C 508.809 586.033 510.852 580.777 512.625 577.175 C 537.192 527.348 560.91 477.037 586.216 427.581 C 594.661 411.077 609.286 391.129 623.088 378.723 C 631.617 371.056 649.552 365.743 656.156 355.415 L 655.063 353.544 z"/>
<path transform="translate(0,0)" fill="rgb(50,146,162)" d="M 736.446 724.692 C 734.826 713.597 733.573 630.499 737.767 624.788 C 745.004 621.426 777.252 622.053 788.282 621.505 C 796.971 626.335 799.114 628.204 803.139 637.156 C 828.689 638.89 854.672 636.682 880.176 637.826 C 886.825 638.125 893.746 642.576 891.8 649.577 C 884.854 674.564 872.193 701.298 862.206 724.838 C 868.488 736.782 876.847 751.639 881.135 764.13 C 877.451 764.229 871.588 764.565 868.085 764.284 C 851.13 764.706 833.467 764.283 816.572 764.634 C 777.614 765.444 751.537 768.012 736.446 724.692 z"/>
<path transform="translate(0,0)" fill="rgb(28,107,127)" d="M 736.446 724.692 C 752.086 722.673 792.861 722.365 808.793 723.667 C 818.073 732.799 825.149 740.293 835.854 747.657 C 843.421 752.862 863.386 759.107 868.085 764.284 C 851.13 764.706 833.467 764.283 816.572 764.634 C 777.614 765.444 751.537 768.012 736.446 724.692 z"/>
<path transform="translate(0,0)" fill="rgb(50,146,162)" d="M 671.083 351.834 C 677.762 361.393 681.506 370.502 686.979 380.499 C 697.688 400.064 706.962 419.907 716.85 439.891 C 734.26 475.075 752.738 509.755 770.105 544.95 C 770.967 546.697 772.304 549.505 772.039 551.454 C 771.854 552.816 771.005 553.041 769.683 554.096 C 761.553 555.018 754.712 544.72 749.002 540.368 C 734.932 538.776 724.292 539.751 711.79 538.572 C 710.308 538.606 708.826 538.651 707.344 538.707 C 680.574 539.731 682.151 547.48 681.627 572.138 C 681.33 586.126 681.415 600.015 682.42 614.016 C 679.499 609.717 675.291 599.73 672.607 594.756 C 664.231 579.237 656.063 561.49 649.135 545.317 C 642.754 530.419 622.83 494.463 619.018 479.853 C 616.665 461.425 631.63 419.499 638.079 401.948 C 642.629 390.942 648.699 380.628 656.111 371.306 C 660.837 365.426 668.028 358.243 671.083 351.834 z"/>
<path transform="translate(0,0)" fill="rgb(28,107,127)" d="M 619.018 479.853 C 616.665 461.425 631.63 419.499 638.079 401.948 C 640.267 406.813 643.08 411.393 645.552 416.12 C 666.482 456.144 685.667 497.081 707.44 536.666 C 707.937 537.57 710.853 538.358 711.79 538.572 C 710.308 538.606 708.826 538.651 707.344 538.707 C 680.574 539.731 682.151 547.48 681.627 572.138 C 681.33 586.126 681.415 600.015 682.42 614.016 C 679.499 609.717 675.291 599.73 672.607 594.756 C 664.231 579.237 656.063 561.49 649.135 545.317 C 642.754 530.419 622.83 494.463 619.018 479.853 z"/>
<path transform="translate(0,0)" fill="rgb(18,73,88)" d="M 1315.39 451.408 C 1338.78 450.71 1363.86 451.683 1387.16 453.317 C 1420.63 455.664 1434.33 494.87 1405.85 513.969 C 1425.75 524.26 1435.58 551.144 1419.22 568.709 C 1408.55 581.508 1394.52 582.923 1378.89 583.418 C 1354.8 584.181 1330.79 583.779 1306.7 583.996 C 1305.51 559.876 1306.95 531.272 1306.33 506.758 C 1306.1 497.712 1305.95 460.236 1307.43 453.586 C 1309.66 451.438 1312.13 451.685 1315.39 451.408 z M 1338.78 529.964 C 1337.86 535.841 1335.66 551.648 1338.31 555.909 C 1340.26 559.055 1375.86 557.377 1380.23 556.683 C 1385.12 555.212 1390.27 554.102 1392.7 549.162 C 1404.27 525.566 1363.36 528.539 1351.37 528.497 C 1347.25 529.012 1342.89 529.632 1338.78 529.964 z M 1337.12 477.121 C 1337.04 483.887 1335.75 498.167 1339.99 502.672 C 1345.59 506.101 1363.38 503.767 1370.75 503.262 C 1401.52 501.541 1394.86 473.736 1353.88 476.5 L 1337.12 477.121 z"/>
<path transform="translate(0,0)" fill="rgb(18,73,88)" d="M 1110.66 451.454 C 1113.51 451.157 1121.05 451.497 1124.24 451.558 C 1132.06 458.178 1141.14 470.214 1147.92 478.263 C 1162.02 495.002 1175.73 511.862 1188.94 529.319 C 1189.65 503.646 1189.44 477.489 1189.77 451.731 C 1200.98 452.54 1209.95 451.865 1221.1 451.222 C 1221.14 455.122 1220.97 470.003 1220.65 473.443 C 1219.43 486.43 1222.65 577.437 1218.45 582.969 L 1214.76 583.471 C 1207.98 583.916 1202.03 583.716 1195.25 583.545 C 1182.03 571.226 1178.15 564.895 1167.1 551.018 C 1154.91 535.702 1141.54 520.629 1129.85 504.833 C 1131.61 514.893 1130.4 522.342 1130.35 532.489 C 1130.26 549.659 1129.69 566.731 1130.31 583.893 C 1120.12 583.322 1108.9 583.319 1098.63 583.11 C 1098.13 578.933 1098.32 557.432 1098.8 553.643 C 1100.42 540.842 1096.29 459.991 1100.28 453.598 C 1102.99 451.479 1107.11 451.682 1110.66 451.454 z"/>
<path transform="translate(0,0)" fill="rgb(18,73,88)" d="M 1005.69 451.345 C 1013.19 451.197 1020.37 451.426 1027.87 451.648 C 1036.6 466.05 1041.47 479.49 1048.24 494.814 L 1070.88 544.979 C 1076.3 557.326 1082.25 572.981 1089.94 583.587 C 1078.51 584.143 1065.28 583.414 1053.74 582.966 C 1048.34 571.678 1049.27 567.287 1040.16 556.559 C 1033.52 556.523 1029.51 556.882 1022.96 557.584 C 1007.44 559.199 1001.99 554.957 983.064 558.425 C 965.891 588.728 978.261 582.779 939.842 583.377 C 949.003 552.884 963.822 526.388 976.628 497.55 C 982.91 483.403 989.015 468.801 996.379 455.226 C 997.94 452.348 1002.74 451.833 1005.69 451.345 z M 993.849 531.265 C 1001.71 530.401 1006.54 530.627 1014.38 532.357 C 1020.19 531.816 1024.15 531.157 1029.81 530.085 L 1030.47 529.152 C 1028.98 523.794 1014.93 486.568 1012.39 484.659 C 1006.62 501.917 998.729 516.567 993.849 531.265 z"/>
<path transform="translate(0,0)" fill="rgb(18,73,88)" d="M 1490.11 451.249 C 1498.08 451.432 1510.67 450.976 1517.96 453.856 C 1519.66 454.529 1521.73 457.913 1522.5 459.58 C 1533.71 483.561 1544.45 507.789 1555.15 531.98 C 1561.18 545.602 1570.29 558.392 1574.61 573.391 C 1575.52 576.531 1576.77 579.429 1575.22 582.433 C 1570.04 583.451 1549.6 584.685 1544.93 582.203 C 1538.81 578.952 1536.18 565.182 1534.36 558.465 C 1528.03 558.454 1522.44 557.703 1516.19 556.983 C 1500.14 556.086 1490.84 558.303 1472.61 556.037 C 1470.48 564.729 1465.58 574.32 1462.38 583.273 C 1451.73 583.405 1439.98 583.062 1429.26 582.947 C 1437.02 564.064 1481.2 459.743 1490.11 451.249 z M 1505.75 530.213 C 1510.68 530.2 1515.61 530.095 1520.54 529.9 C 1519.47 525.086 1505.4 489.38 1502.62 484.802 C 1499.55 492.91 1486.77 525.066 1486.64 531.174 C 1491.21 533.419 1500.51 531.162 1505.75 530.213 z"/>
<path transform="translate(0,0)" fill="rgb(18,73,88)" d="M 1626.36 449.28 C 1646.91 447.157 1668.2 452.811 1686.47 461.919 C 1682.5 473.131 1681.27 475.977 1673.86 485.03 C 1660.7 480.393 1621.05 463.928 1615.43 488.404 C 1614.59 492.055 1619.57 496.721 1621.96 499.294 C 1647.14 506.68 1689.75 506.967 1690.54 543.264 C 1690.83 553.677 1686.94 563.773 1679.73 571.292 C 1667.89 583.517 1650.66 585.653 1634.46 585.916 C 1622.85 585.618 1585.51 580.594 1580.78 569.164 C 1581.35 564.285 1587.34 553.066 1590.02 548.219 C 1595.73 544.773 1631.8 566.799 1646.28 559.017 C 1657.34 553.071 1663.02 544.265 1649.65 537.216 C 1629.08 526.371 1594.79 528.933 1584.52 503.737 C 1574.72 469.623 1602.62 457.116 1626.36 449.28 z"/>
<path transform="translate(0,0)" fill="rgb(28,107,127)" d="M 749.985 583.454 C 755.55 583.744 766.379 583.466 770.693 587.202 C 773.552 589.678 776.922 596.894 781.945 597.46 C 785.383 597.969 790.975 596.482 794.206 596.969 C 804.18 600.132 821.76 595.717 830.287 597.572 C 840.847 599.87 863.526 594.164 869.291 599.909 C 872.274 606.49 870.887 622.116 870.585 630.016 C 851.972 629.995 821.576 630.332 804.318 628.228 C 796.591 609.667 782.569 615.191 764.962 614.754 C 756.742 614.853 739.108 613.28 732.93 618.856 C 724.373 626.58 727.859 690.408 727.969 705.877 C 724.559 701.268 713.543 682.844 713.507 678.42 C 713.349 659.069 711.397 606.406 713.607 589.669 C 719.289 582.361 738.628 585.273 749.985 583.454 z"/>
<path transform="translate(0,0)" fill="rgb(18,73,88)" d="M 698.152 546.339 C 709.637 545.877 734.35 544.796 746.001 547.323 C 751.273 548.467 753.291 559.72 763.488 559.839 C 782.003 560.056 799.961 559.996 818.441 559.941 C 826.281 559.929 834.584 559.193 842.128 560.241 C 850.317 564.381 848.613 585.66 846.6 593.193 C 828.115 591.151 807.902 593.14 786.411 591.325 C 782.392 588.223 778.796 583.823 775.4 579.982 C 769.258 575.785 755.571 576.376 748.154 576.227 C 740.338 576.07 714.289 575.427 709.725 580.357 C 701.343 589.409 704.226 643.509 704.023 657.559 C 702.193 653.803 691.606 633.695 691.349 630.984 C 689.659 613.164 688.481 567.564 690.396 550.821 C 693.119 547.453 693.495 548.125 698.152 546.339 z"/>
<path transform="translate(0,0)" fill="rgb(18,73,88)" d="M 1247.47 451.009 C 1257.19 451.939 1268.53 452.124 1278.43 452.509 C 1279.42 468.364 1279 486.33 1279.02 502.362 C 1279.12 529.34 1279.03 556.318 1278.74 583.294 C 1272.99 584.608 1253.85 583.274 1247.08 582.899 L 1246.94 499.791 C 1246.92 485.876 1246.26 464.118 1247.47 451.009 z"/>
<path transform="translate(0,0)" fill="rgb(50,146,162)" d="M 1181.12 618.019 C 1185.79 617.793 1190.96 617.91 1195.67 617.917 C 1201.07 624.795 1215.39 651.128 1220.82 660.327 C 1224.28 650.968 1236.09 627.884 1243.07 619.789 C 1245.46 617.021 1254.46 617.835 1258.45 618.009 C 1259 625.955 1258.46 637.685 1258.47 645.951 C 1258.48 659.127 1259 674.131 1257.97 687.129 C 1253.53 687.206 1245.88 688.162 1242.01 687.301 L 1240.89 685.132 C 1241.56 674.058 1241.64 661.543 1242.2 650.107 C 1236.49 658.841 1227.91 682.066 1217.41 680.321 C 1210.71 676.054 1201.6 656.937 1198.08 649.215 C 1197.85 661.918 1197.87 674.624 1198.12 687.327 C 1192.78 687.033 1187.05 687.294 1181.68 687.423 C 1180.3 675.942 1181.16 667.515 1181.13 656.205 C 1181.09 643.18 1180.11 631.119 1181.12 618.019 z"/>
<path transform="translate(0,0)" fill="rgb(50,146,162)" d="M 1631.09 618.301 C 1647.52 618.189 1668.27 614.736 1682.31 625.027 C 1697.66 636.278 1688.69 653.798 1679.51 665.728 C 1682.31 672.844 1690.32 681.249 1688.59 687.492 C 1685.05 689.55 1683.12 688.817 1678.53 688.839 C 1667.78 687.01 1663.24 667.866 1652.74 667.058 C 1645.56 674.104 1652.18 681.087 1646.33 687.37 C 1642.26 688.956 1635.72 687.985 1631.15 687.658 C 1630.55 665.862 1630.51 639.987 1631.09 618.301 z M 1648.9 655.031 C 1654.5 654.199 1664.69 653.319 1669 650.869 C 1679.45 630.691 1662.48 633.601 1648.87 632.507 C 1647.93 636.869 1648.9 649.512 1648.9 655.031 z"/>
<path transform="translate(0,0)" fill="rgb(50,146,162)" d="M 1390.32 617.881 L 1408.43 617.862 C 1410.71 639.728 1409.24 665.264 1408.93 687.617 C 1404.62 687.568 1399.97 687.805 1395.63 687.943 C 1385.3 678.017 1370.1 658.962 1362.66 646.477 C 1363.61 656.691 1363 676.512 1363.13 687.958 C 1358.32 688.099 1353.05 688.604 1348.52 687.188 C 1343.69 681.375 1346.04 627.226 1346.13 617.825 C 1348.13 617.784 1354.27 617.674 1355.87 618.164 C 1367.98 621.869 1384.73 647.827 1391.74 658.352 C 1391.17 646.681 1390.05 629.07 1390.32 617.881 z"/>
<path transform="translate(0,0)" fill="rgb(50,146,162)" d="M 1295.77 617.011 C 1301.31 617.145 1305.32 617.52 1310.76 618.135 C 1321.32 639.11 1331.53 665.444 1341.09 687.415 C 1325.17 688.042 1323.76 690.48 1316.52 675.577 C 1312.8 673.101 1312.07 673.873 1306.92 673.54 C 1300.44 673.453 1293.96 673.495 1287.48 673.668 C 1286.82 675.445 1286.13 677.213 1285.43 678.972 C 1284.25 681.892 1282.68 685.848 1279.45 686.683 C 1275.41 687.729 1267.01 688.603 1263.35 687.02 C 1264.21 682.025 1286.7 633.199 1289.76 624.171 C 1290.55 621.846 1293.8 618.699 1295.77 617.011 z"/>
<path transform="translate(0,0)" fill="rgb(50,146,162)" d="M 1443.98 618.007 C 1447.03 617.814 1455.66 617.355 1457.9 618.465 C 1464.49 621.716 1469.78 639.042 1472.81 645.702 C 1479.38 660.195 1484.82 674.411 1491.91 688.377 C 1486.15 687.939 1478.84 686.861 1472.99 686.158 C 1470.39 681.755 1467.25 674.643 1463.09 673.254 C 1453.83 673.806 1445.94 673.926 1436.65 673.886 L 1436.49 674.52 C 1435.24 679.244 1433.96 686.478 1428.05 687.582 C 1424.24 688.294 1418.4 688.505 1414.93 686.631 C 1413.58 681.719 1439.07 623.829 1443.98 618.007 z M 1450.75 659.665 C 1453.61 659.657 1458.87 660.199 1460.68 658.761 C 1459.47 655.228 1453.23 638.535 1451.45 636.753 C 1449.47 643.536 1443.25 655.062 1444.05 658.757 C 1446.13 660.026 1448.21 659.682 1450.75 659.665 z"/>
<path transform="translate(0,0)" fill="rgb(50,146,162)" d="M 1090.92 618.427 C 1106.1 617.255 1127.2 617.89 1142.86 617.947 C 1143.04 622.84 1142.73 627.865 1142.53 632.768 C 1131.46 633.453 1120.37 633.971 1109.28 634.32 C 1109.71 637.777 1109.44 641.374 1109.32 644.874 C 1119.1 645.25 1129.57 645.154 1139.48 645.389 C 1139.52 649.781 1139.28 654.819 1139.17 659.266 C 1132.28 658.992 1115.61 658.084 1109.24 659.477 L 1108.53 661.089 C 1108.45 662.123 1107.63 671.969 1108.71 672.27 C 1116.72 674.499 1138.26 669.078 1144.38 674.12 C 1145.3 678.294 1143.82 684.167 1143.04 688.542 C 1122.11 687.165 1113.19 687.525 1092.09 688.426 C 1092 678.605 1089.14 625.374 1090.92 618.427 z"/>
<path transform="translate(0,0)" fill="rgb(50,146,162)" d="M 1567 618.035 L 1618.62 618.195 C 1618.7 622.873 1619.25 627.13 1619.79 631.753 C 1609.6 633.077 1585.84 629.667 1584.77 639.593 C 1588.61 650.313 1607.66 642.353 1614.34 646.356 C 1623.92 667.131 1594.14 655.736 1584.79 660.218 C 1584.65 660.95 1584.52 661.683 1584.39 662.417 C 1583.61 667.061 1583.39 667.753 1585.8 671.133 C 1597.64 677.484 1612.7 666.048 1621.62 676.226 C 1623.4 679.738 1622.05 684.209 1621.33 688.216 C 1612.71 687.9 1573.05 689.284 1568.83 685.24 C 1567.16 683.64 1566.49 681.381 1566.29 679.131 C 1565.73 672.877 1566.92 665.856 1567.04 659.5 C 1567.32 645.705 1567.24 631.833 1567 618.035 z"/>
<path transform="translate(0,0)" fill="rgb(50,146,162)" d="M 1523.7 617.492 C 1539.24 616.689 1543.62 618.618 1555.87 627.687 L 1549.53 640.321 C 1527.66 629.631 1517.22 625.934 1507.77 652.889 C 1512.97 670.986 1520.06 673.301 1537.33 671.646 C 1538.55 664.796 1539.26 657.882 1540.06 650.968 L 1553.89 650.121 L 1554.43 650.493 C 1557.23 655.162 1556.04 674.341 1555.72 680.586 C 1547.54 685.368 1541.4 688.258 1531.54 688.978 C 1520.93 689.779 1510.45 686.227 1502.52 679.138 C 1479.84 658.94 1491.54 618.743 1523.7 617.492 z"/>
<path transform="translate(0,0)" fill="rgb(50,146,162)" d="M 941.66 618.056 C 958.209 617.86 976.463 618.854 992.647 617.86 L 994.39 633.439 C 981.672 631.875 972.447 633.159 959.898 632.923 C 960.109 638.641 959.939 643.216 959.689 648.881 C 969.362 648.395 980.771 645.857 989.114 648.407 C 991.619 651.26 990.81 651.156 991.05 655.899 C 990.845 658.374 990.595 658.829 989.725 661.194 C 985.549 664.18 966.23 662.345 958.656 662.68 C 959.665 672.186 960.311 678.73 960.244 688.232 L 941.768 688.146 C 943.34 670.588 942.067 654.184 942.072 636.596 C 942.073 631.104 940.82 622.975 941.66 618.056 z"/>
<path transform="translate(0,0)" fill="rgb(50,146,162)" d="M 1033.24 617.999 C 1038.27 617.77 1046.28 616.791 1050.21 619.794 C 1051.59 624.427 1050.56 665.828 1050.03 672.555 C 1059.29 671.776 1073.3 672.523 1082.93 672.766 C 1083.11 677.435 1083.53 682.347 1082.6 686.896 C 1065.9 687.293 1048.65 687.193 1032.05 688.143 C 1032.41 668.349 1031.27 636.368 1033.24 617.999 z"/>
<path transform="translate(0,0)" fill="rgb(50,146,162)" d="M 1006.21 616.836 C 1010.67 618.02 1015.6 618.1 1020.25 618.366 C 1020.68 625.816 1020.7 680.179 1019.24 686.124 L 1017.18 686.863 C 1010.78 686.762 1008.16 687.231 1002 688.298 C 1003.76 667.093 1000.04 644.16 1002.99 622.78 C 1003.38 619.904 1004.17 618.804 1006.21 616.836 z"/>
</svg>