<svg version="1.1" xmlns="http://www.w3.org/2000/svg" style="display: block;" viewBox="637 228 790 614" width="32" height="32">
<defs>
    <linearGradient id="Gradient1" gradientUnits="userSpaceOnUse" x1="898.844" y1="811.734" x2="864.351" y2="586.065">
        <stop class="stop0" offset="0" stop-opacity="1" stop-color="rgb(24,82,95)"/>
        <stop class="stop1" offset="1" stop-opacity="1" stop-color="rgb(56,143,152)"/>
    </linearGradient>
</defs>
<path transform="translate(0,0)" fill="url(#Gradient1)" d="M 637.418 840.18 C 644.738 818.768 665.734 784.887 675.919 764.003 C 690.837 733.414 708.342 695.621 727.847 668.394 C 757.772 626.619 810.749 598.913 861.724 596.409 C 888.946 594.535 926.936 597.508 954.138 594.004 C 962.292 592.953 963.623 571.568 971.12 569.456 C 986.127 565.228 1042.66 566.011 1054.66 569.635 C 1073.31 594.668 1055.11 591.65 1092.89 596.538 C 1106.64 622.3 1118.28 649.649 1131.57 675.692 C 1137.71 687.73 1143.95 700.36 1148.76 712.947 C 1138.85 712.035 1121.19 712.473 1110.56 712.464 C 1084.07 712.422 1057.58 712.561 1031.09 712.882 L 926.61 712.558 C 920.238 712.539 887.47 711.953 883.116 713.271 C 878.481 727.088 867.241 747.254 860.825 760.692 C 847.723 788.135 837.579 819.599 808.312 834.22 C 790.791 842.973 751.862 840.272 730.372 840.144 C 699.528 840.515 668.343 840.048 637.418 840.18 z"/>
<path transform="translate(0,0)" fill="rgb(19,71,85)" d="M 730.372 840.144 C 730.972 835.22 732.228 830.398 734.108 825.808 C 737.454 817.467 742.972 810.211 746.572 802.671 C 764.211 765.729 782.04 733.623 823.602 720.273 C 844.543 713.547 860.703 713.827 883.116 713.271 C 878.481 727.088 867.241 747.254 860.825 760.692 C 847.723 788.135 837.579 819.599 808.312 834.22 C 790.791 842.973 751.862 840.272 730.372 840.144 z"/>
<path transform="translate(0,0)" fill="rgb(35,108,126)" d="M 743.515 633.795 C 748.896 620.007 761.451 596.19 768.386 582.34 L 823.778 474.067 L 892.933 337.658 C 905.717 312.299 918.312 286.71 931.528 261.605 C 937.887 249.525 954.146 236.107 967.151 232.787 C 984.795 228.283 1005.33 229.776 1023.52 229.814 L 1084.54 230.046 L 1102.28 230.048 C 1080.14 254.546 1067.12 270.623 1053.19 301.981 C 1038.39 334.129 1027.16 381.744 1024.68 416.681 C 1019.3 424.426 1011.12 443.994 1006.88 453.107 L 970.32 530.036 C 964.418 542.501 952.065 570.028 944.977 580.034 C 919.609 580.177 882.692 579.183 858.326 581.321 C 816.888 584.544 771.787 602.807 743.515 633.795 z"/>
<path transform="translate(0,0)" fill="rgb(19,71,85)" d="M 1084.54 230.046 L 1102.28 230.048 C 1080.14 254.546 1067.12 270.623 1053.19 301.981 C 1038.39 334.129 1027.16 381.744 1024.68 416.681 C 1019.3 424.426 1011.12 443.994 1006.88 453.107 L 970.32 530.036 C 964.418 542.501 952.065 570.028 944.977 580.034 C 919.609 580.177 882.692 579.183 858.326 581.321 L 858.904 579.904 C 872.453 547.196 895.179 504.923 911.041 472.516 C 925.485 442.403 940.188 412.415 955.149 382.556 C 987.284 317.634 1015.06 262.08 1087.55 236.686 C 1089.92 235.855 1091.59 234.748 1092.51 232.461 C 1089.66 230.077 1088.85 230.684 1084.54 230.046 z"/>
<path transform="translate(0,0)" fill="rgb(46,148,167)" d="M 1199.63 781.56 C 1197.35 760.778 1197.96 733.078 1198.07 711.905 C 1198.14 700.13 1196.25 640.069 1201.54 633.421 C 1212.52 627.293 1250.8 632.806 1263.06 630.814 C 1288.92 626.618 1290.6 650.596 1298.34 651.758 C 1328.4 656.275 1363.08 652.513 1393.84 653.496 C 1402.1 653.751 1422.89 651.057 1426.05 659.331 C 1430.58 671.192 1417.07 699.421 1412.75 710.403 L 1387.92 773.351 L 1384.01 783.213 C 1392.83 803.018 1402.5 819.794 1410.45 840.391 C 1402.15 840.604 1394.76 840.669 1386.47 840.439 C 1344.6 839.435 1300.45 841.537 1258.66 839.55 C 1230.04 838.189 1207.42 808.036 1199.63 781.56 z"/>
<path transform="translate(0,0)" fill="rgb(35,108,126)" d="M 1199.63 781.56 C 1233.16 780.412 1273.7 782.576 1305.93 780.271 C 1323.15 799.65 1342.36 817.917 1366.42 827.216 C 1374.7 830.418 1381.83 832.709 1386.47 840.439 C 1344.6 839.435 1300.45 841.537 1258.66 839.55 C 1230.04 838.189 1207.42 808.036 1199.63 781.56 z"/>
<path transform="translate(0,0)" fill="rgb(46,148,167)" d="M 1102.28 230.048 C 1108.47 237.499 1127.86 278.738 1133.55 290.306 L 1175.55 373.595 L 1227.04 474.373 C 1235.84 491.617 1245.38 508.304 1252.83 526.155 C 1247.64 525.896 1240.92 525.756 1235.88 525.116 C 1229.1 518.003 1221.84 509.327 1213.53 504.383 C 1198.84 503.739 1179.77 504.92 1166.56 503.874 C 1154.99 504.406 1135.26 501.815 1126.62 510.058 C 1115.58 520.579 1117.72 546.207 1117.72 560.471 C 1117.72 578.311 1118.34 595.371 1117.55 613.056 C 1109.95 594.72 1096.4 569.249 1087.51 550.396 L 1024.68 416.681 C 1027.16 381.744 1038.39 334.129 1053.19 301.981 C 1067.12 270.623 1080.14 254.546 1102.28 230.048 z"/>
<path transform="translate(0,0)" fill="rgb(35,108,126)" d="M 1053.19 301.981 C 1084.99 361.839 1113.71 423.917 1145.2 483.978 C 1148.43 490.141 1151.65 496.326 1154.18 502.811 C 1157.67 502.939 1163.43 502.94 1166.56 503.874 C 1154.99 504.406 1135.26 501.815 1126.62 510.058 C 1115.58 520.579 1117.72 546.207 1117.72 560.471 C 1117.72 578.311 1118.34 595.371 1117.55 613.056 C 1109.95 594.72 1096.4 569.249 1087.51 550.396 L 1024.68 416.681 C 1027.16 381.744 1038.39 334.129 1053.19 301.981 z"/>
<path transform="translate(0,0)" fill="rgb(35,108,126)" d="M 1175.28 574.413 C 1187.13 574.66 1244.34 573.38 1247.28 576.32 C 1270.54 599.571 1257.22 596.516 1302.05 596.245 L 1373.6 595.737 C 1393.77 595.737 1394.88 598.776 1394.78 618.681 C 1394.74 625.811 1394.66 633.283 1394.63 640.425 C 1368.6 638.858 1339.46 641.259 1313.21 640.022 C 1300.89 639.442 1299.8 634.475 1293.18 626.131 C 1286.79 618.084 1280.1 618.006 1270.62 617.207 C 1251.35 617.472 1189.39 609.343 1186.98 635.239 C 1183.38 673.83 1186.97 714.58 1184.76 753.609 C 1176.29 736.082 1162.52 712.484 1164.57 693.933 C 1166.6 675.573 1161.14 588.45 1167.07 577.673 C 1169.47 574.964 1171.73 574.967 1175.28 574.413 z"/>
<path transform="translate(0,0)" fill="rgb(19,71,85)" d="M 1138.71 518.158 C 1156.74 517.129 1176.34 517.627 1194.09 517.335 C 1212.48 516.55 1216.06 520.467 1226.53 534.418 C 1231.82 541.461 1254.05 539.02 1262.73 538.914 L 1315.67 538.636 C 1364.67 538.515 1362.68 534.043 1359.71 583.486 C 1336.27 583.081 1293.71 584.819 1270.02 581.439 C 1266.69 580.962 1262.89 569.962 1255.39 565.009 L 1254.6 564.493 C 1241.15 559.56 1223.27 561.851 1208.97 561.814 C 1193.15 561.772 1167.65 556.668 1156.05 569.612 C 1148.81 577.697 1150.91 604.313 1150.93 615.323 C 1150.78 637.251 1151.08 659.179 1151.83 681.094 C 1148.8 676.042 1132.15 645.884 1131.81 638.977 C 1130.09 604.131 1130.69 561.848 1131.49 526.433 C 1131.57 522.787 1136.06 519.793 1138.71 518.158 z"/>
</svg>
